<?xml version="1.0" encoding="UTF-8" standalone="no"?>
<!--
.~~~~~~~~~~~~~~~~~~~~~~~~~~~~~~~~~~~~~~~~~~~~~~~~~~~~~~~~~~~~~~~~~~~~~~~~~~.
|                                DHBW logo                                 |
'~~~~~~~~~~~~~~~~~~~~~~~~~~~~~~~~~~~~~~~~~~~~~~~~~~~~~~~~~~~~~~~~~~~~~~~~~~'

Author: N/A
Changed: Sven Vogel
Edited: 05.07.2024
License: MIT

Source: https://upload.wikimedia.org/wikipedia/de/1/1d/DHBW-Logo.svg

     Created with Inkscape (http://www.inkscape.org/)
-->

<svg
   width="353.7124mm"
   height="146.95026mm"
   viewBox="0 0 353.7124 146.95026"
   version="1.1"
   id="svg1"
   xmlns="http://www.w3.org/2000/svg"
   xmlns:svg="http://www.w3.org/2000/svg">
  <defs
     id="defs1" />
  <g
     id="layer1"
     transform="translate(97.234971,-46.66001)">
    <path
       id="path2"
       d="M 21.883869,77.150888 H -4.9839275 V 101.3195 c 0,1.19315 -0.997119,3.15749 -2.1898486,4.35064 l -24.6960949,24.69608 c -1.207683,1.20772 -2.186244,1.20772 -2.186244,0 v 2.7137 c 0,1.19314 0.978561,2.17168 2.186244,2.17168 h 53.75374 c 1.196757,0 2.175318,-0.97856 2.175318,-2.17168 V 79.322569 c 0,-1.207702 -0.978561,-2.171681 -2.175318,-2.171681 z"
       style="fill:#5d686e;fill-opacity:0.8;fill-rule:nonzero;stroke:none;stroke-width:3.63766" />
    <path
       id="path3"
       d="M -7.1737761,47.565786 -31.869871,72.261865 c -1.207683,1.193162 -2.186244,3.15386 -2.186244,4.361561 v 53.742794 c 0,1.20772 0.978561,1.20772 2.186244,0 l 24.6960949,-24.69608 c 1.193141,-1.19315 2.1898486,-3.15749 2.1898486,-4.35064 V 47.565786 c 0,-1.207701 -0.997119,-1.207701 -2.1898486,0 z"
       style="fill:#e30613;fill-opacity:1;fill-rule:nonzero;stroke:none;stroke-width:3.63766" />
    <path
       id="path4"
       d="m -31.869871,130.36622 24.6960949,-24.69608 c 1.193141,-1.19315 2.1898486,-3.15749 2.1898486,-4.35064 V 77.150888 H -31.869871 c -1.207683,0 -2.17532,0.96402 -2.17532,2.171681 v 51.043651 c 0,1.20772 0.967226,1.20772 2.17532,0 z"
       style="fill:#5d686e;fill-opacity:0.6;fill-rule:nonzero;stroke:none;stroke-width:3.63766" />
    <path
       id="path5"
       d="m -41.305911,135.2516 h -26.867797 v 29.27226 c 0,1.2077 0.964115,1.2077 2.171701,0 l 24.696096,-24.69608 c 1.207682,-1.2077 2.189848,-3.15386 2.189848,-4.36156 v -2.3863 c 0,1.19314 -0.981658,2.17168 -2.189848,2.17168 z"
       style="fill:#5d686e;fill-opacity:0.8;fill-rule:nonzero;stroke:none;stroke-width:3.63766" />
    <path
       id="path6"
       d="m -41.305911,77.150888 h -53.753753 c -1.207682,0 -2.175307,0.96402 -2.175307,2.171681 v 53.757351 c 0,1.19314 0.967213,2.17168 2.175307,2.17168 h 53.753753 c 1.207682,0 2.189848,-0.97856 2.189848,-2.17168 V 79.322569 c 0,-1.207702 -0.981658,-2.171681 -2.189848,-2.171681 z"
       style="fill:#e30613;fill-opacity:1;fill-rule:nonzero;stroke:none;stroke-width:3.63766" />
    <path
       id="path7"
       d="m -41.305911,81.712513 -24.696096,24.696077 c -1.19314,1.20769 -2.171701,3.15385 -2.171701,4.36156 v 24.48145 h 26.867797 c 1.207682,0 2.189848,-0.96401 2.189848,-2.17168 V 81.712513 c 0,-1.207702 -0.981658,-1.207702 -2.189848,0 z"
       style="fill:#5d686e;fill-opacity:0.6;fill-rule:nonzero;stroke:none;stroke-width:3.63766" />
    <path
       id="path8"
       d="m 95.990313,104.95716 c 0,4.36518 -0.625896,8.39936 -1.877094,12.10613 -1.236767,3.72498 -3.011985,6.93704 -5.270924,9.63618 -2.259036,2.6846 -5.030865,4.80171 -8.286608,6.30769 -3.237501,1.50599 -6.875187,2.25899 -10.898421,2.25899 H 55.106644 c -0.636228,0 -1.149529,-0.19644 -1.520535,-0.59662 -0.38153,-0.41102 -0.581568,-0.93856 -0.581568,-1.57511 V 79.351616 c 0,-0.63663 0.200038,-1.164053 0.581568,-1.56055 0.371212,-0.414727 0.88369,-0.611161 1.520535,-0.611161 h 14.467002 c 3.96497,0 7.559031,0.66571 10.811073,2.000716 3.255744,1.338657 6.027573,3.226606 8.330234,5.656564 2.284502,2.444509 4.077879,5.35827 5.354641,8.752208 1.280488,3.39758 1.920719,7.191657 1.920719,11.367697 z m -10.574729,0 c 0,-2.7828 -0.33822,-5.398279 -1.036715,-7.799148 -0.694999,-2.415401 -1.731509,-4.50341 -3.095605,-6.238572 -1.364108,-1.749727 -3.015698,-3.12476 -4.932702,-4.150575 -1.917018,-1.022186 -4.106963,-1.520546 -6.53687,-1.520546 h -6.551399 v 41.949501 h 6.027585 c 2.429895,0 4.645318,-0.54197 6.620478,-1.6515 1.98981,-1.10583 3.69595,-2.64094 5.114607,-4.61619 1.422359,-1.9898 2.502699,-4.33245 3.270285,-7.02067 0.75273,-2.7137 1.120336,-5.6966 1.120336,-8.9523 z"
       style="fill:#e30613;fill-opacity:1;fill-rule:nonzero;stroke:none;stroke-width:3.63766" />
    <path
       id="path9"
       d="m 145.86261,134.66958 c -0.41141,0.4002 -0.91978,0.59663 -1.56053,0.59663 h -5.9985 c -0.63622,0 -1.14951,-0.19643 -1.52052,-0.61116 -0.3671,-0.39649 -0.56713,-0.92401 -0.56713,-1.56057 V 109.20596 H 116.1106 v 23.88852 c 0,0.63663 -0.20004,1.16405 -0.61147,1.56057 -0.40008,0.41473 -0.92391,0.61116 -1.56415,0.61116 h -5.99489 c -0.62591,0 -1.13859,-0.19643 -1.52054,-0.59663 -0.3712,-0.41102 -0.55681,-0.93854 -0.55681,-1.57512 V 79.351669 c 0,-0.636632 0.18561,-1.164053 0.55681,-1.56055 0.38153,-0.414729 0.89504,-0.611162 1.52054,-0.611162 h 5.99489 c 0.64035,0 1.16407,0.196433 1.56415,0.611162 0.397,0.396476 0.61147,0.923908 0.61147,1.56055 v 21.331251 h 20.10533 V 79.351669 c 0,-0.636632 0.20003,-1.164053 0.56713,-1.56055 0.37121,-0.414729 0.88368,-0.611162 1.52052,-0.611162 h 5.9985 c 0.64034,0 1.14953,0.196433 1.56053,0.611162 0.4001,0.396476 0.61148,0.923908 0.61148,1.56055 v 53.742791 c 0,0.63665 -0.21138,1.16406 -0.61148,1.57512 z"
       style="fill:#e30613;fill-opacity:1;fill-rule:nonzero;stroke:none;stroke-width:3.63766" />
    <path
       id="path10"
       d="m 193.65056,118.54383 c 0,2.61184 -0.52383,4.95812 -1.57509,7.06069 -1.04043,2.08803 -2.47361,3.85229 -4.30699,5.27097 -1.83339,1.42234 -3.96508,2.50272 -6.40952,3.27027 -2.43,0.75305 -5.01632,1.12039 -7.74463,1.12039 h -13.32842 c -0.41143,0 -0.76717,-0.14189 -1.05125,-0.42556 -0.28358,-0.28377 -0.44031,-0.64024 -0.44031,-1.05128 V 78.569624 c 0,-0.396476 0.15673,-0.738404 0.44031,-1.007637 0.28356,-0.254591 0.64033,-0.381937 1.05125,-0.381937 h 14.37967 c 2.26264,0 4.46343,0.283771 6.58058,0.865752 2.11715,0.581979 3.9796,1.462343 5.58376,2.655494 1.60787,1.193152 2.87021,2.702784 3.83774,4.53253 0.96721,1.818831 1.4333,3.979596 1.4333,6.482308 0,1.560565 -0.35266,3.066558 -1.05126,4.48888 -0.695,1.422323 -1.57518,2.699142 -2.61191,3.823176 -1.05125,1.13494 -2.20438,2.10256 -3.45579,2.87012 -1.24769,0.79666 -2.45536,1.36411 -3.62304,1.70605 1.62231,0.29831 3.18296,0.83667 4.66347,1.61876 1.47682,0.78213 2.78276,1.77517 3.92136,2.99743 1.12045,1.22226 2.02981,2.63003 2.68459,4.23424 0.68056,1.57874 1.02187,3.2848 1.02187,5.0891 z m -8.01378,-26.573121 c 0,-2.968322 -1.00743,-5.31462 -3.04105,-7.060695 -2.04436,-1.735158 -4.68895,-2.600921 -7.94098,-2.600921 h -9.50883 v 20.105347 h 9.25054 c 1.45143,0 2.84461,-0.2546 4.17964,-0.78213 1.33504,-0.52382 2.52818,-1.24771 3.57942,-2.186229 1.05137,-0.92401 1.89164,-2.018903 2.52818,-3.299367 0.6259,-1.276809 0.95278,-2.670037 0.95278,-4.176029 z m 1.40783,26.329391 c 0,-3.36483 -1.15314,-6.02396 -3.43764,-7.9701 -2.30266,-1.94616 -5.28917,-2.91378 -8.95222,-2.91378 h -9.50883 v 22.73538 h 9.50883 c 1.68789,0 3.28112,-0.28377 4.80164,-0.88029 1.52053,-0.58199 2.82649,-1.39322 3.96507,-2.42994 1.135,-1.05129 2.01528,-2.28809 2.67005,-3.73589 0.64036,-1.46597 0.95279,-3.05563 0.95279,-4.80534 z"
       style="fill:#5d686e;fill-opacity:1;fill-rule:nonzero;stroke:none;stroke-width:3.63766" />
    <path
       id="path11"
       d="m 245.23261,133.78926 c -0.11239,0.40018 -0.31244,0.75305 -0.61148,1.05129 -0.28356,0.28377 -0.62591,0.42554 -1.03672,0.42554 h -4.36154 c -0.40009,0 -0.78264,-0.14188 -1.09488,-0.42554 -0.31244,-0.28378 -0.54237,-0.65118 -0.65478,-1.05129 l -9.61803,-48.697355 -9.46522,48.697355 c -0.12683,0.40018 -0.34233,0.75305 -0.65477,1.05129 -0.32791,0.28377 -0.68056,0.42554 -1.09127,0.42554 h -4.36516 c -0.39699,0 -0.76718,-0.14188 -1.08044,-0.42554 -0.32377,-0.28378 -0.53826,-0.65118 -0.65168,-1.05129 L 199.36457,78.569573 c -0.1165,-0.411016 -0.0412,-0.738405 0.21138,-1.007638 0.26913,-0.25459 0.59703,-0.381937 1.00743,-0.381937 h 3.65223 c 0.93834,0 1.52052,0.469275 1.74964,1.389585 l 8.73764,48.784677 9.46522,-48.784677 c 0.22583,-0.920299 0.80739,-1.389585 1.7315,-1.389585 h 4.36527 c 0.8806,0 1.41865,0.469275 1.66241,1.389585 l 9.53432,48.784677 8.66483,-48.784677 c 0.22892,-0.920299 0.78264,-1.389585 1.65148,-1.389585 h 3.49581 c 0.39698,0 0.70942,0.127347 0.94968,0.381937 0.22891,0.269233 0.29801,0.596622 0.17117,1.007638 z"
       style="fill:#5d686e;fill-opacity:1;fill-rule:nonzero;stroke:none;stroke-width:3.63766" />
    <path
       id="path12"
       d="m 61.927268,184.26181 c 0,0.66932 -0.126834,1.26592 -0.396991,1.78973 -0.269129,0.52745 -0.625908,0.98218 -1.09487,1.33503 -0.46918,0.37099 -1.007439,0.64023 -1.618805,0.84027 -0.625908,0.1855 -1.280476,0.28378 -1.975268,0.28378 h -3.764919 v -14.73616 h 4.034157 c 0.567136,0 1.12405,0.0732 1.662418,0.21458 0.542384,0.15643 1.007426,0.3674 1.422262,0.68025 0.396991,0.28739 0.723864,0.68385 0.964128,1.13857 0.243349,0.46928 0.371211,1.00765 0.371211,1.64788 0,0.39647 -0.08251,0.78212 -0.26913,1.13859 -0.171172,0.36739 -0.400088,0.68025 -0.654785,0.97855 -0.269128,0.28377 -0.567124,0.52744 -0.880591,0.72387 -0.312441,0.20004 -0.625909,0.34193 -0.909483,0.42556 0.395964,0.0876 0.79708,0.21457 1.178611,0.41473 0.371212,0.19643 0.70942,0.45473 0.992994,0.76758 0.287688,0.29831 0.512478,0.66571 0.683651,1.06583 0.171173,0.41102 0.254685,0.83668 0.254685,1.29138 z M 59.89745,177.5285 c 0,-0.75306 -0.273254,-1.35321 -0.767174,-1.79337 -0.527939,-0.44019 -1.193141,-0.6657 -2.018881,-0.6657 h -2.415462 v 5.11455 h 2.34637 c 0.367098,0 0.723877,-0.0732 1.0658,-0.20005 0.33822,-0.14188 0.636214,-0.31285 0.909469,-0.55289 0.254697,-0.24005 0.466083,-0.51289 0.636228,-0.83668 0.156728,-0.32738 0.243348,-0.68385 0.243348,-1.06584 z m 0.352654,6.67874 c 0,-0.85483 -0.297995,-1.53509 -0.880592,-2.01889 -0.58157,-0.49836 -1.335037,-0.75305 -2.25894,-0.75305 H 54.69511 v 5.76933 h 2.415462 c 0.425869,0 0.825946,-0.0732 1.207683,-0.21459 0.385643,-0.15642 0.723864,-0.35646 1.007426,-0.6257 0.287688,-0.26913 0.512478,-0.58198 0.683651,-0.94938 0.15674,-0.371 0.240264,-0.76759 0.240264,-1.2077 z"
       style="fill:#5d686e;fill-opacity:1;fill-rule:nonzero;stroke:none;stroke-width:3.63766" />
    <path
       id="path13"
       d="m 70.370206,188.51059 v -1.5751 c -0.04125,0.098 -0.156728,0.24006 -0.312439,0.4402 -0.171174,0.21097 -0.400077,0.42555 -0.683651,0.62198 -0.283562,0.2146 -0.59703,0.4001 -0.964116,0.54198 -0.356779,0.15643 -0.742435,0.24006 -1.153133,0.24006 -0.978561,0 -1.77523,-0.26925 -2.400933,-0.82213 -0.625908,-0.54198 -0.938347,-1.30957 -0.938347,-2.30265 0,-0.46927 0.126834,-0.89483 0.400088,-1.30592 0.26913,-0.38565 0.621783,-0.74211 1.036716,-1.04038 0.425869,-0.28376 0.880604,-0.53835 1.378747,-0.75304 0.494959,-0.19643 0.949695,-0.33831 1.378649,-0.44019 l 2.171702,-0.48382 v -0.72387 c 0,-0.72386 -0.200038,-1.33502 -0.597031,-1.83338 -0.38153,-0.49474 -0.978561,-0.7384 -1.775121,-0.7384 -0.228916,0 -0.498045,0.0433 -0.797081,0.14188 -0.283574,0.0877 -0.567136,0.1855 -0.836265,0.29831 -0.257782,0.11638 -0.498046,0.21459 -0.712516,0.3274 -0.225832,0.11287 -0.352654,0.1855 -0.411437,0.22922 l -0.469167,-1.19315 c 0.06182,-0.0433 0.200038,-0.11639 0.425856,-0.21458 0.214484,-0.098 0.483613,-0.2146 0.797081,-0.34194 0.298007,-0.11275 0.640341,-0.21097 1.021872,-0.29831 0.37121,-0.098 0.752741,-0.14188 1.138591,-0.14188 1.120348,0 2.01518,0.31285 2.684591,0.93855 0.669218,0.62569 1.007439,1.54964 1.007439,2.75735 v 7.67182 z m -0.08251,-5.74022 -1.862553,0.39648 c -0.309354,0.0732 -0.636227,0.18549 -0.993006,0.32738 -0.356778,0.1419 -0.669205,0.32739 -0.967213,0.52744 -0.283562,0.21096 -0.523825,0.44019 -0.709431,0.70932 -0.200038,0.26923 -0.283562,0.5529 -0.283562,0.86575 0,0.61116 0.185606,1.09494 0.552691,1.45143 0.385656,0.35287 0.840391,0.53838 1.37865,0.53838 0.342333,0 0.669218,-0.0691 0.981645,-0.21099 0.327914,-0.14188 0.611476,-0.31285 0.866173,-0.52742 0.254695,-0.21459 0.469167,-0.44019 0.654772,-0.69478 0.171173,-0.24377 0.298008,-0.46928 0.367098,-0.69841 v -2.6846 z"
       style="fill:#5d686e;fill-opacity:1;fill-rule:nonzero;stroke:none;stroke-width:3.63766" />
    <path
       id="path14"
       d="m 81.792549,188.51059 v -1.5751 c -0.04125,0.098 -0.142308,0.24006 -0.312441,0.4402 -0.156739,0.21097 -0.367085,0.42555 -0.625907,0.62198 -0.254697,0.2146 -0.538259,0.4001 -0.850698,0.54198 -0.326873,0.15643 -0.640341,0.24006 -0.967213,0.24006 -0.767175,0 -1.418658,-0.18189 -1.946197,-0.53837 -0.523815,-0.37101 -0.964117,-0.84028 -1.305845,-1.42233 -0.342334,-0.58197 -0.581569,-1.23681 -0.738297,-1.96069 -0.15674,-0.73841 -0.228916,-1.46234 -0.228916,-2.18624 0,-0.65478 0.103074,-1.32411 0.297995,-1.97525 0.20005,-0.65478 0.483612,-1.25136 0.854823,-1.77881 0.352654,-0.53837 0.807388,-0.96402 1.335037,-1.29138 0.509382,-0.31285 1.09487,-0.48381 1.731496,-0.48381 0.342346,0 0.654786,0.0732 0.967213,0.22922 0.298008,0.14188 0.567137,0.31285 0.811514,0.50929 0.225831,0.20003 0.425869,0.40019 0.581569,0.59662 0.15674,0.20005 0.254696,0.371 0.31244,0.48382 v -6.12582 h 1.520534 v 15.67467 z m -0.08251,-7.87189 c -0.03097,-0.11275 -0.112389,-0.29831 -0.243349,-0.53836 -0.142307,-0.24377 -0.312439,-0.48382 -0.523825,-0.74212 -0.228916,-0.24006 -0.483613,-0.46567 -0.782649,-0.66571 -0.297994,-0.18551 -0.625895,-0.28377 -0.967212,-0.28377 -0.425858,0 -0.807389,0.11275 -1.149529,0.34193 -0.342334,0.21097 -0.625896,0.52382 -0.880591,0.90936 -0.228916,0.39648 -0.42587,0.83667 -0.556817,1.36048 -0.126835,0.51291 -0.195926,1.06585 -0.195926,1.65151 0,0.52383 0.04125,1.06583 0.142296,1.63331 0.103074,0.58197 0.254696,1.10948 0.469179,1.57511 0.22582,0.46928 0.523826,0.85483 0.86616,1.16769 0.356779,0.31285 0.797081,0.46927 1.305953,0.46927 0.326873,0 0.640341,-0.0876 0.938348,-0.27284 0.297995,-0.16735 0.567124,-0.38193 0.781607,-0.62199 0.228917,-0.22922 0.411424,-0.45473 0.538259,-0.68386 0.145392,-0.22551 0.228916,-0.411 0.258821,-0.52382 z"
       style="fill:#5d686e;fill-opacity:1;fill-rule:nonzero;stroke:none;stroke-width:3.63766" />
    <path
       id="path15"
       d="m 87.50727,183.22507 c 0,0.45474 0.05154,0.92401 0.18148,1.42233 0.103075,0.49474 0.283563,0.96402 0.512479,1.40414 0.225819,0.42556 0.538259,0.79667 0.90947,1.08038 0.367098,0.28379 0.811525,0.42556 1.320495,0.42556 0.31244,0 0.611475,-0.0258 0.90947,-0.098 0.31244,-0.0732 0.581569,-0.14188 0.854824,-0.22551 0.254696,-0.0877 0.480516,-0.1855 0.666121,-0.28738 0.185605,-0.0835 0.342345,-0.16736 0.469167,-0.25469 l 0.454748,1.295 c -0.08251,0.0402 -0.240264,0.098 -0.454748,0.19643 -0.21447,0.0876 -0.469167,0.17097 -0.767174,0.2583 -0.297995,0.0835 -0.640341,0.16737 -1.02186,0.24006 -0.37121,0.0577 -0.767174,0.098 -1.17861,0.098 -0.869257,0 -1.578786,-0.19644 -2.146224,-0.56744 -0.556817,-0.38194 -0.997119,-0.86576 -1.335025,-1.46235 -0.326885,-0.59663 -0.556829,-1.25136 -0.683651,-1.9607 -0.142307,-0.71303 -0.211386,-1.42233 -0.211386,-2.11712 0,-0.54196 0.103074,-1.13859 0.26913,-1.7788 0.185605,-0.65119 0.440302,-1.24774 0.782635,-1.8043 0.352653,-0.5529 0.778522,-1.00763 1.291412,-1.37867 0.498045,-0.3674 1.09487,-0.5529 1.775121,-0.5529 0.752742,0 1.378747,0.17096 1.891636,0.52744 0.523826,0.35285 0.938348,0.79293 1.251308,1.34956 0.327901,0.53835 0.552691,1.13495 0.680553,1.78972 0.142296,0.64025 0.214484,1.26229 0.214484,1.84794 v 0.5529 z m 5.012719,-2.24443 c -0.103074,-0.4402 -0.240252,-0.86937 -0.440303,-1.25135 -0.195912,-0.37101 -0.469167,-0.70933 -0.782635,-0.97856 -0.323787,-0.27284 -0.723864,-0.40019 -1.178612,-0.40019 -0.425856,0 -0.792943,0.12735 -1.120335,0.38555 -0.326872,0.2547 -0.597031,0.58198 -0.79708,0.96401 -0.214472,0.38555 -0.371212,0.78213 -0.483601,1.22225 -0.103074,0.4402 -0.15674,0.84028 -0.15674,1.19316 h 5.103669 c 0,-0.31286 -0.04125,-0.6948 -0.145391,-1.13495 z"
       style="fill:#5d686e;fill-opacity:1;fill-rule:nonzero;stroke:none;stroke-width:3.63766" />
    <path
       id="path16"
       d="m 103.74579,188.51059 v -7.4463 c 0,-0.2983 -0.0515,-0.59661 -0.15674,-0.92401 -0.0825,-0.31285 -0.22582,-0.59661 -0.397,-0.8512 -0.1856,-0.25458 -0.39698,-0.46928 -0.68055,-0.64025 -0.27325,-0.15642 -0.58569,-0.22549 -0.93834,-0.22549 -0.34234,0 -0.66921,0.0691 -0.98165,0.22549 -0.31244,0.17097 -0.597042,0.37101 -0.836266,0.59664 -0.243348,0.22911 -0.440302,0.45473 -0.59703,0.69838 -0.15674,0.22552 -0.257793,0.42556 -0.273255,0.56745 v 7.99922 h -1.520533 v -11.08388 h 1.465984 v 1.53509 c 0.03097,-0.0691 0.11239,-0.20004 0.283563,-0.39647 0.171172,-0.20003 0.38153,-0.40018 0.64034,-0.61116 0.269127,-0.20003 0.567137,-0.40008 0.909487,-0.55661 0.3382,-0.16736 0.69498,-0.24006 1.08032,-0.24006 0.59705,0 1.10591,0.098 1.54601,0.31285 0.44029,0.21459 0.81151,0.51291 1.09497,0.85122 0.28356,0.35647 0.49804,0.76759 0.65478,1.2077 0.1423,0.45473 0.21139,0.89483 0.21139,1.36413 v 7.61726 z"
       style="fill:#5d686e;fill-opacity:1;fill-rule:nonzero;stroke:none;stroke-width:3.63766" />
    <path
       id="path17"
       d="m 108.6057,181.10796 h 4.64533 v 1.36412 h -4.64533 z"
       style="fill:#5d686e;fill-opacity:1;fill-rule:nonzero;stroke:none;stroke-width:3.63766" />
    <path
       id="path18"
       d="m 128.64194,188.51059 h -1.78977 l -3.16841,-12.73181 -3.13921,12.73181 h -1.81885 l -3.39764,-14.73615 h 1.6916 l 2.66995,12.71725 3.13933,-12.71725 h 1.79337 l 3.16842,12.71725 2.64097,-12.71725 h 1.62241 z"
       style="fill:#5d686e;fill-opacity:1;fill-rule:nonzero;stroke:none;stroke-width:3.63766" />
    <path
       id="path19"
       d="m 140.80628,188.51059 v -1.5751 c -0.0618,0.0835 -0.1423,0.22552 -0.298,0.42556 -0.15674,0.21097 -0.35678,0.41102 -0.61147,0.6257 -0.25469,0.19643 -0.54239,0.38194 -0.86616,0.53837 -0.34235,0.17096 -0.71253,0.25459 -1.09487,0.25459 -0.61147,0 -1.12406,-0.11287 -1.56425,-0.32739 -0.42588,-0.21098 -0.79708,-0.49474 -1.0658,-0.83668 -0.28356,-0.34192 -0.49804,-0.73841 -0.62591,-1.20769 -0.12683,-0.45474 -0.19592,-0.92401 -0.19592,-1.42233 V 177.412 h 1.52054 v 7.44628 c 0,0.34194 0.0412,0.66932 0.12683,0.98217 0.0825,0.3274 0.19591,0.59663 0.36709,0.85122 0.15673,0.24376 0.37121,0.44019 0.64034,0.59662 0.2547,0.15642 0.58157,0.22924 0.96721,0.22924 0.35265,0 0.68057,-0.0877 0.993,-0.28379 0.298,-0.17097 0.58156,-0.40008 0.82596,-0.6257 0.22581,-0.22922 0.41141,-0.46928 0.55268,-0.71304 0.14229,-0.22551 0.21449,-0.39647 0.22892,-0.4802 v -8.00271 h 1.53301 v 11.0985 z m -3.29576,-14.09594 c 0,0.26925 -0.10307,0.5129 -0.29799,0.70933 -0.20005,0.20005 -0.4434,0.29831 -0.74243,0.29831 -0.29799,0 -0.53826,-0.098 -0.72386,-0.29831 -0.19592,-0.19643 -0.298,-0.4402 -0.298,-0.70933 0,-0.28377 0.10308,-0.52381 0.298,-0.72387 0.1856,-0.20003 0.42587,-0.29831 0.72386,-0.29831 0.29801,0 0.54238,0.098 0.74243,0.29831 0.19592,0.20006 0.29799,0.44021 0.29799,0.72387 z m 3.79412,0 c 0,0.26925 -0.10308,0.5129 -0.28769,0.70933 -0.19695,0.20005 -0.45474,0.29831 -0.73831,0.29831 -0.29799,0 -0.53826,-0.098 -0.7383,-0.29831 -0.1856,-0.19643 -0.28356,-0.4402 -0.28356,-0.70933 0,-0.28377 0.10307,-0.52381 0.28356,-0.72387 0.20004,-0.20003 0.44031,-0.29831 0.7383,-0.29831 0.28357,0 0.54239,0.098 0.73831,0.29831 0.18561,0.20006 0.28769,0.44021 0.28769,0.72387 z"
       style="fill:#5d686e;fill-opacity:1;fill-rule:nonzero;stroke:none;stroke-width:3.63766" />
    <path
       id="path20"
       d="m 150.52609,178.87808 c -0.0825,-0.0433 -0.22891,-0.10212 -0.40009,-0.18551 -0.16704,-0.0877 -0.32378,-0.12734 -0.46917,-0.12734 -0.298,0 -0.56713,0.0835 -0.83625,0.25459 -0.26913,0.17097 -0.49805,0.371 -0.695,0.58197 -0.21447,0.22913 -0.38564,0.4402 -0.51248,0.65478 -0.11239,0.21097 -0.20004,0.3674 -0.22892,0.48382 v 7.97012 h -1.53146 V 177.412 h 1.46237 v 1.54965 c 0.0309,-0.0577 0.11239,-0.18551 0.24026,-0.38194 0.1165,-0.20004 0.298,-0.40018 0.51248,-0.61116 0.22582,-0.21458 0.48362,-0.41473 0.78265,-0.57115 0.29799,-0.16735 0.64034,-0.25459 1.02186,-0.25459 0.20005,0 0.41144,0.0433 0.64034,0.11275 0.22583,0.0877 0.38153,0.15642 0.46918,0.22923 z"
       style="fill:#5d686e;fill-opacity:1;fill-rule:nonzero;stroke:none;stroke-width:3.63766" />
    <path
       id="path21"
       d="m 158.2561,188.53971 c -0.12684,0.0433 -0.28358,0.0691 -0.44031,0.098 -0.15673,0.0289 -0.34235,0.0577 -0.51248,0.0877 -0.1856,0.0402 -0.35678,0.0547 -0.51247,0.0547 -0.44031,0 -0.80741,-0.0691 -1.10581,-0.19643 -0.29801,-0.14188 -0.54239,-0.31285 -0.72799,-0.54197 -0.18148,-0.2255 -0.32379,-0.49835 -0.39597,-0.79666 -0.0825,-0.28377 -0.12682,-0.58198 -0.12682,-0.89483 v -7.67183 h -1.86246 v -1.26591 h 1.86246 v -2.99775 h 1.53517 v 2.99745 h 2.17531 v 1.2659 h -2.17531 v 7.51542 c 0,0.29831 0.0722,0.59661 0.20005,0.89482 0.14229,0.28738 0.38152,0.42927 0.72386,0.42927 0.21139,0 0.42586,-0.0433 0.68055,-0.13095 0.2578,-0.0691 0.42587,-0.14189 0.51248,-0.19644 l 0.46918,1.25136 c -0.0722,0.0258 -0.15674,0.0691 -0.298,0.098 z"
       style="fill:#5d686e;fill-opacity:1;fill-rule:nonzero;stroke:none;stroke-width:3.63766" />
    <path
       id="path22"
       d="m 165.78605,188.53971 c -0.12683,0.0433 -0.26913,0.0691 -0.4403,0.098 -0.15674,0.0289 -0.32687,0.0577 -0.51247,0.0877 -0.1815,0.0402 -0.35265,0.0547 -0.49497,0.0547 -0.44028,0 -0.81151,-0.0691 -1.12404,-0.19643 -0.29801,-0.14188 -0.53827,-0.31285 -0.72387,-0.54197 -0.18561,-0.2255 -0.31244,-0.49835 -0.40009,-0.79666 -0.0825,-0.28377 -0.12684,-0.58198 -0.12684,-0.89483 v -7.67183 h -1.84791 v -1.26591 h 1.84791 v -2.99775 h 1.53519 v 2.99745 h 2.18985 v 1.2659 h -2.18985 v 7.51542 c 0,0.29831 0.0722,0.59661 0.20004,0.89482 0.15673,0.28738 0.38151,0.42927 0.72386,0.42927 0.21449,0 0.4403,-0.0433 0.68365,-0.13095 0.2547,-0.0691 0.42587,-0.14189 0.5094,-0.19644 l 0.46916,1.25136 c -0.0618,0.0258 -0.15673,0.0691 -0.298,0.098 z"
       style="fill:#5d686e;fill-opacity:1;fill-rule:nonzero;stroke:none;stroke-width:3.63766" />
    <path
       id="path23"
       d="m 169.66388,183.22507 c 0,0.45474 0.0619,0.92401 0.15675,1.42233 0.1165,0.49474 0.28768,0.96402 0.52794,1.40414 0.24026,0.42556 0.53826,0.79667 0.90947,1.08038 0.37122,0.28379 0.81152,0.42556 1.32049,0.42556 0.29801,0 0.61148,-0.0258 0.90948,-0.098 0.31242,-0.0732 0.59703,-0.14188 0.85481,-0.22551 0.2547,-0.0877 0.48052,-0.1855 0.66612,-0.28738 0.18562,-0.0835 0.34235,-0.16736 0.46919,-0.25469 l 0.46916,1.295 c -0.10307,0.0402 -0.24025,0.098 -0.45474,0.19643 -0.21448,0.0876 -0.48361,0.17097 -0.78263,0.2583 -0.29801,0.0835 -0.64035,0.16737 -1.00744,0.24006 -0.38565,0.0577 -0.78264,0.098 -1.19314,0.098 -0.86925,0 -1.57878,-0.19644 -2.13169,-0.56744 -0.56712,-0.38194 -1.01155,-0.86576 -1.33503,-1.46235 -0.34234,-0.59663 -0.57125,-1.25136 -0.71252,-1.9607 -0.12683,-0.71303 -0.18149,-1.42233 -0.18149,-2.11712 0,-0.54196 0.0825,-1.13859 0.25469,-1.7788 0.18562,-0.65119 0.44031,-1.24774 0.79709,-1.8043 0.33822,-0.5529 0.76718,-1.00763 1.27676,-1.37867 0.51249,-0.3674 1.09498,-0.5529 1.77523,-0.5529 0.75274,0 1.37865,0.17096 1.90618,0.52744 0.50939,0.35285 0.92392,0.79293 1.23677,1.34956 0.32789,0.53835 0.55269,1.13495 0.69498,1.78972 0.12683,0.64025 0.20006,1.26229 0.20006,1.84794 v 0.5529 z m 5.0017,-2.24443 c -0.10307,-0.4402 -0.24027,-0.86937 -0.4403,-1.25135 -0.19593,-0.37101 -0.46918,-0.70933 -0.77853,-0.97856 -0.32686,-0.27284 -0.72696,-0.40019 -1.1822,-0.40019 -0.42587,0 -0.79295,0.12735 -1.12034,0.38555 -0.32688,0.2547 -0.59703,0.58198 -0.79709,0.96401 -0.20004,0.38555 -0.37121,0.78213 -0.4836,1.22225 -0.10307,0.4402 -0.15674,0.84028 -0.15674,1.19316 h 5.10367 c 0,-0.31286 -0.0412,-0.6948 -0.14539,-1.13495 z"
       style="fill:#5d686e;fill-opacity:1;fill-rule:nonzero;stroke:none;stroke-width:3.63766" />
    <path
       id="path24"
       d="m 191.57713,188.51059 v -7.4463 c 0,-0.32737 -0.031,-0.65116 -0.10308,-0.96401 -0.0825,-0.31285 -0.1856,-0.59662 -0.34232,-0.85481 -0.15675,-0.2546 -0.37122,-0.45475 -0.64035,-0.61118 -0.25469,-0.15643 -0.56713,-0.22549 -0.95278,-0.22549 -0.3671,0 -0.72387,0.0691 -1.02187,0.21097 -0.298,0.14188 -0.5527,0.29831 -0.78265,0.49834 -0.19694,0.21458 -0.38152,0.41101 -0.50938,0.64024 -0.13096,0.21099 -0.20004,0.41102 -0.21448,0.56744 v 8.18474 h -1.53517 v -7.44629 c 0,-0.32738 -0.031,-0.65117 -0.10308,-0.96402 -0.0618,-0.31286 -0.17118,-0.59662 -0.32791,-0.85482 -0.15673,-0.25459 -0.35676,-0.45474 -0.62591,-0.61116 -0.25469,-0.15643 -0.58156,-0.22551 -0.97855,-0.22551 -0.35678,0 -0.68365,0.0835 -0.98269,0.24005 -0.298,0.17096 -0.5527,0.35646 -0.7816,0.58197 -0.21139,0.22923 -0.397,0.46928 -0.52383,0.69841 -0.14229,0.24004 -0.22892,0.42555 -0.24335,0.58198 v 7.99921 h -1.53507 v -11.09851 h 1.46598 v 1.54966 c 0.0412,-0.0577 0.12683,-0.18551 0.26913,-0.38194 0.1423,-0.21459 0.3279,-0.41473 0.55269,-0.6257 0.22892,-0.21459 0.51352,-0.40009 0.8404,-0.57116 0.33821,-0.15281 0.70942,-0.24005 1.12033,-0.24005 0.54238,0 0.99712,0.0732 1.34956,0.22923 0.37123,0.14189 0.66922,0.31284 0.89504,0.50929 0.24336,0.20004 0.41453,0.40018 0.54239,0.59661 0.11239,0.20004 0.20004,0.35647 0.25469,0.48381 0.0618,-0.0835 0.1423,-0.21096 0.29802,-0.41101 0.15672,-0.20004 0.3712,-0.40019 0.6259,-0.61116 0.25468,-0.20005 0.56712,-0.38555 0.9239,-0.5565 0.37121,-0.15283 0.76717,-0.24006 1.20768,-0.24006 0.62591,0 1.16406,0.11275 1.60416,0.32739 0.42895,0.21458 0.78264,0.49834 1.04042,0.85121 0.26913,0.34194 0.45475,0.75305 0.56714,1.19315 0.11239,0.45474 0.17117,0.90937 0.17117,1.36413 v 7.6318 z"
       style="fill:#5d686e;fill-opacity:1;fill-rule:nonzero;stroke:none;stroke-width:3.63766" />
    <path
       id="path25"
       d="m 205.28748,182.67215 c 0,0.72387 -0.10307,1.4478 -0.31244,2.17169 -0.19695,0.72386 -0.50939,1.36413 -0.92082,1.94614 -0.41452,0.59662 -0.9239,1.06583 -1.53517,1.43689 -0.59702,0.371 -1.30956,0.5529 -2.09157,0.5529 -0.22584,0 -0.5094,-0.0258 -0.86618,-0.0547 -0.34233,-0.0433 -0.68055,-0.0877 -1.05135,-0.14191 -0.34235,-0.0577 -0.68055,-0.13094 -0.97856,-0.18549 -0.31244,-0.0577 -0.54239,-0.10212 -0.66922,-0.12736 v -15.43458 h 1.52064 v 6.12582 c 0.0618,-0.0835 0.14127,-0.22551 0.298,-0.42556 0.15673,-0.20004 0.35678,-0.39647 0.59703,-0.61116 0.25469,-0.20004 0.52795,-0.38555 0.84039,-0.54197 0.30934,-0.15281 0.62178,-0.22551 0.96413,-0.22551 0.75272,0 1.39317,0.17097 1.92061,0.51289 0.53826,0.35286 0.96413,0.77842 1.30595,1.30592 0.34233,0.53837 0.59703,1.13495 0.73829,1.78972 0.15675,0.65478 0.24027,1.29501 0.24027,1.90614 z m -1.58972,0 c 0,-0.48381 -0.0618,-0.98216 -0.17118,-1.49508 -0.11238,-0.49475 -0.28356,-0.96401 -0.51248,-1.37504 -0.22582,-0.41473 -0.50938,-0.74211 -0.85069,-1.01123 -0.35677,-0.2546 -0.76717,-0.38195 -1.2513,-0.38195 -0.298,0 -0.59704,0.0835 -0.8806,0.26923 -0.28356,0.17097 -0.53825,0.38194 -0.7816,0.61117 -0.22584,0.22551 -0.42588,0.45474 -0.59705,0.69478 -0.15673,0.22923 -0.2547,0.41473 -0.26912,0.52743 v 6.73332 c 0.0618,0.0433 0.1856,0.0732 0.35677,0.10212 0.15674,0.0289 0.33822,0.0402 0.53825,0.0691 0.20006,0.0289 0.41143,0.0433 0.61148,0.0732 0.21447,0.0144 0.38565,0.0289 0.53827,0.0289 0.51247,0 0.9672,-0.15642 1.37863,-0.46928 0.40009,-0.29831 0.74244,-0.69839 1.026,-1.16768 0.28356,-0.46568 0.49495,-0.9931 0.63621,-1.57512 0.15675,-0.56745 0.22892,-1.10947 0.22892,-1.6333 z"
       style="fill:#5d686e;fill-opacity:1;fill-rule:nonzero;stroke:none;stroke-width:3.63766" />
    <path
       id="path26"
       d="m 209.11066,183.22507 c 0,0.45474 0.0618,0.92401 0.17118,1.42233 0.10307,0.49474 0.28356,0.96402 0.51248,1.40414 0.22581,0.42556 0.53825,0.79667 0.90947,1.08038 0.35265,0.28379 0.80738,0.42556 1.32049,0.42556 0.31244,0 0.61146,-0.0258 0.90947,-0.098 0.31244,-0.0732 0.58157,-0.14188 0.8507,-0.22551 0.25778,-0.0877 0.48359,-0.1855 0.66922,-0.28738 0.1856,-0.0835 0.34233,-0.16736 0.46916,-0.25469 l 0.45474,1.295 c -0.0825,0.0402 -0.22891,0.098 -0.45474,0.19643 -0.21448,0.0876 -0.46916,0.17097 -0.76717,0.2583 -0.298,0.0835 -0.64034,0.16737 -1.00743,0.24006 -0.38565,0.0577 -0.78264,0.098 -1.19675,0.098 -0.86616,0 -1.57519,-0.19644 -2.14262,-0.56744 -0.55682,-0.38194 -0.99712,-0.86576 -1.33865,-1.46235 -0.32377,-0.59663 -0.55269,-1.25136 -0.68055,-1.9607 -0.1423,-0.71303 -0.20004,-1.42233 -0.20004,-2.11712 0,-0.54196 0.0825,-1.13859 0.25778,-1.7788 0.18148,-0.65119 0.44031,-1.24774 0.77853,-1.8043 0.35678,-0.5529 0.7816,-1.00763 1.29501,-1.37867 0.49805,-0.3674 1.09488,-0.5529 1.77513,-0.5529 0.75272,0 1.37864,0.17096 1.90617,0.52744 0.5094,0.35285 0.92391,0.79293 1.23315,1.34956 0.31244,0.53835 0.55682,1.13495 0.68365,1.78972 0.15674,0.64025 0.21449,1.26229 0.21449,1.84794 v 0.5529 z m 5.0018,-2.24443 c -0.10308,-0.4402 -0.24026,-0.86937 -0.4403,-1.25135 -0.20004,-0.37101 -0.45474,-0.70933 -0.78265,-0.97856 -0.3279,-0.27284 -0.72387,-0.40019 -1.1786,-0.40019 -0.42586,0 -0.79709,0.12735 -1.12406,0.38555 -0.32378,0.2547 -0.59704,0.58198 -0.79294,0.96401 -0.21449,0.38555 -0.37122,0.78213 -0.48362,1.22225 -0.10308,0.4402 -0.15673,0.84028 -0.15673,1.19316 h 5.09996 c 0,-0.31286 -0.0412,-0.6948 -0.14126,-1.13495 z"
       style="fill:#5d686e;fill-opacity:1;fill-rule:nonzero;stroke:none;stroke-width:3.63766" />
    <path
       id="path27"
       d="m 223.49033,178.87808 c -0.0825,-0.0433 -0.21139,-0.10212 -0.39699,-0.18551 -0.17117,-0.0877 -0.3279,-0.12734 -0.45473,-0.12734 -0.29801,0 -0.5826,0.0835 -0.85071,0.25459 -0.25778,0.17097 -0.49804,0.371 -0.69808,0.58197 -0.21139,0.22913 -0.36708,0.4402 -0.49804,0.65478 -0.12684,0.21097 -0.21139,0.3674 -0.24027,0.48382 v 7.97012 h -1.52052 V 177.412 h 1.45144 v 1.54965 c 0.0412,-0.0577 0.11239,-0.18551 0.24026,-0.38194 0.12683,-0.20004 0.29801,-0.40018 0.51248,-0.61116 0.22582,-0.21458 0.48051,-0.41473 0.79295,-0.57115 0.298,-0.16735 0.64034,-0.25459 1.02599,-0.25459 0.18148,0 0.39597,0.0433 0.62179,0.11275 0.22892,0.0877 0.38564,0.15642 0.48361,0.22923 z"
       style="fill:#5d686e;fill-opacity:1;fill-rule:nonzero;stroke:none;stroke-width:3.63766" />
    <path
       id="path28"
       d="m 232.44255,178.49247 c 0.0618,0.0877 0.1423,0.18551 0.24335,0.34193 0.10308,0.14189 0.19593,0.3274 0.29801,0.53836 0.10307,0.21459 0.18148,0.45474 0.25469,0.72749 0.0825,0.26922 0.11239,0.56743 0.11239,0.88028 0,0.5529 -0.10307,1.08039 -0.28356,1.57511 -0.20005,0.49836 -0.45473,0.92401 -0.79708,1.29502 -0.33822,0.36738 -0.75273,0.65477 -1.22223,0.86574 -0.46606,0.21459 -0.97855,0.32739 -1.52051,0.32739 -0.16705,0 -0.33822,0.0289 -0.52383,0.0835 -0.18561,0.0577 -0.35678,0.13095 -0.51248,0.21459 -0.17117,0.0835 -0.29801,0.20003 -0.41143,0.32738 -0.11239,0.12735 -0.17117,0.25459 -0.17117,0.38194 0,0.32739 0.15674,0.59652 0.45474,0.79667 0.298,0.21457 0.69808,0.31285 1.16406,0.31285 0.60013,0 1.19675,0.0732 1.74966,0.21457 0.55269,0.14189 1.05135,0.33832 1.47691,0.61116 0.42586,0.28377 0.76717,0.61116 1.01156,0.99311 0.25468,0.38193 0.38152,0.83666 0.38152,1.33501 0,0.38555 -0.11239,0.76759 -0.32688,1.15315 -0.22582,0.38193 -0.53826,0.73841 -0.93835,1.06583 -0.41142,0.30924 -0.89503,0.58198 -1.46237,0.77841 -0.56713,0.20005 -1.19314,0.29831 -1.89153,0.29831 -0.60735,0 -1.19314,-0.0835 -1.73151,-0.24004 -0.53826,-0.17096 -0.99712,-0.38195 -1.37874,-0.65478 -0.38153,-0.26925 -0.68056,-0.59663 -0.90947,-0.97857 -0.21449,-0.371 -0.32688,-0.78213 -0.32688,-1.22225 0,-0.42555 0.11239,-0.79667 0.34234,-1.13859 0.22581,-0.32378 0.49804,-0.59663 0.8115,-0.82213 0.29802,-0.22923 0.62179,-0.40019 0.94971,-0.51289 0.31242,-0.12736 0.58155,-0.19644 0.78263,-0.21098 -0.10307,-0.0144 -0.22582,-0.0577 -0.41143,-0.13095 -0.17117,-0.0547 -0.35678,-0.15643 -0.51247,-0.26925 -0.17117,-0.12734 -0.32689,-0.26922 -0.45476,-0.46926 -0.11238,-0.1819 -0.1856,-0.41102 -0.1856,-0.68025 0,-0.18551 0.0618,-0.35648 0.1856,-0.52743 0.1124,-0.17096 0.2578,-0.31285 0.41453,-0.44021 0.16705,-0.14188 0.32379,-0.25458 0.49496,-0.34191 0.17117,-0.0835 0.31244,-0.14189 0.4403,-0.16737 -0.21139,-0.0876 -0.45475,-0.20003 -0.70943,-0.371 -0.26913,-0.17096 -0.52795,-0.39647 -0.76717,-0.70933 -0.24027,-0.2983 -0.44031,-0.66931 -0.61148,-1.12405 -0.15673,-0.45473 -0.24025,-0.99309 -0.24025,-1.61876 0,-0.4838 0.10308,-0.93855 0.298,-1.40777 0.19592,-0.45473 0.46918,-0.85121 0.82182,-1.22224 0.34234,-0.35648 0.73831,-0.65479 1.20768,-0.86576 0.46918,-0.22922 0.96722,-0.34193 1.49146,-0.34193 0.34233,0 0.66921,0.0433 0.96721,0.11276 0.298,0.0577 0.51248,0.11638 0.65478,0.15643 h 3.13922 v 1.08038 z m 0.15675,11.82241 c 0,-0.56744 -0.28359,-1.03674 -0.86618,-1.41868 -0.596,-0.37101 -1.32048,-0.55652 -2.20439,-0.55652 -0.36708,0 -0.72387,0.0433 -1.07672,0.15643 -0.34233,0.10212 -0.65477,0.24376 -0.90947,0.41101 -0.27326,0.17097 -0.48361,0.38566 -0.65478,0.6257 -0.15673,0.24376 -0.22891,0.5129 -0.22891,0.78213 0,0.28377 0.0618,0.55652 0.20003,0.8112 0.1423,0.26924 0.34235,0.49836 0.58158,0.68025 0.25882,0.20004 0.55681,0.37101 0.90946,0.48382 0.35679,0.11275 0.75275,0.17097 1.1786,0.17097 0.4434,0 0.8404,-0.0577 1.2113,-0.18551 0.36709,-0.12734 0.695,-0.28377 0.97856,-0.48382 0.26913,-0.19643 0.49804,-0.42556 0.64034,-0.68024 0.17117,-0.2546 0.24026,-0.52744 0.24026,-0.79667 z m -0.79296,-9.33424 c 0,-0.81121 -0.20005,-1.46599 -0.61148,-1.96071 -0.40008,-0.49834 -0.96721,-0.73839 -1.66602,-0.73839 -0.35265,0 -0.68056,0.0691 -0.96413,0.21097 -0.28356,0.15643 -0.52794,0.35647 -0.72386,0.59662 -0.18561,0.2583 -0.34234,0.54197 -0.44031,0.86937 -0.10307,0.32377 -0.15672,0.66571 -0.15672,1.02216 0,0.38194 0.0412,0.7676 0.12684,1.13496 0.0825,0.35647 0.21137,0.66932 0.38151,0.93855 0.17118,0.25459 0.41453,0.46927 0.69809,0.6257 0.298,0.15642 0.65066,0.22552 1.07672,0.22552 0.41452,0 0.75687,-0.0835 1.05487,-0.26924 0.28356,-0.1855 0.50939,-0.42556 0.70944,-0.69478 0.17115,-0.28378 0.31242,-0.59663 0.38152,-0.93855 0.0825,-0.34194 0.13095,-0.6948 0.13095,-1.02218 z"
       style="fill:#5d686e;fill-opacity:1;fill-rule:nonzero;stroke:none;stroke-width:3.63766" />
    <path
       id="path29"
       d="m 62.978525,156.55374 c 0,1.0804 -0.15674,2.07348 -0.480515,3.01199 -0.327901,0.93855 -0.767175,1.74971 -1.33863,2.4445 -0.567137,0.68025 -1.23316,1.23682 -2.015276,1.63332 -0.782648,0.40009 -1.636952,0.59662 -2.546325,0.59662 h -3.506727 v -14.73616 h 3.197494 c 0.949683,0 1.829767,0.15642 2.640966,0.48382 0.825958,0.32738 1.535074,0.78212 2.131694,1.39322 0.611474,0.59662 1.08034,1.33501 1.422262,2.20442 0.33822,0.88028 0.494948,1.85883 0.494948,2.96833 z m -1.647875,0 c 0,-0.89482 -0.126835,-1.70606 -0.395963,-2.41541 -0.26913,-0.70932 -0.625909,-1.30956 -1.065896,-1.80427 -0.440302,-0.48382 -0.95278,-0.86577 -1.535076,-1.13859 -0.581568,-0.25459 -1.19314,-0.39647 -1.818842,-0.39647 H 54.69603 v 12.13524 h 1.877106 c 0.666121,0 1.291303,-0.17097 1.873393,-0.49835 0.581568,-0.3274 1.080328,-0.78214 1.505991,-1.36412 0.425858,-0.56744 0.767175,-1.25137 1.011552,-2.01891 0.240264,-0.76759 0.367086,-1.60421 0.367086,-2.49907 z"
       style="fill:#5d686e;fill-opacity:1;fill-rule:nonzero;stroke:none;stroke-width:3.63766" />
    <path
       id="path30"
       d="m 71.930845,164.24013 v -1.56057 c -0.04125,0.0691 -0.142296,0.21097 -0.297996,0.41102 -0.15674,0.21097 -0.352653,0.41101 -0.597029,0.6257 -0.254697,0.21096 -0.538272,0.38193 -0.880605,0.5529 -0.326872,0.15643 -0.694999,0.24005 -1.094979,0.24005 -0.59703,0 -1.120347,-0.11276 -1.549604,-0.32378 -0.440302,-0.21458 -0.792956,-0.49836 -1.076723,-0.84028 -0.273255,-0.34194 -0.483613,-0.73841 -0.611476,-1.20771 -0.142294,-0.45473 -0.200038,-0.92401 -0.200038,-1.40776 v -7.58817 h 1.520522 v 7.44629 c 0,0.34193 0.04125,0.66931 0.126834,0.9967 0.07223,0.31286 0.200039,0.59663 0.356779,0.83667 0.171172,0.24378 0.381517,0.44021 0.636214,0.59664 0.273255,0.15642 0.600128,0.22911 0.981659,0.22911 0.356777,0 0.68365,-0.0877 0.992993,-0.26923 0.298007,-0.20004 0.585694,-0.40009 0.811514,-0.6257 0.240251,-0.24376 0.425869,-0.48382 0.567136,-0.71295 0.141266,-0.24003 0.21447,-0.39646 0.228903,-0.49474 v -8.00285 h 1.535076 v 11.0985 z"
       style="fill:#5d686e;fill-opacity:1;fill-rule:nonzero;stroke:none;stroke-width:3.63766" />
    <path
       id="path31"
       d="m 82.803785,164.24013 v -1.56057 c -0.04125,0.0835 -0.142294,0.22551 -0.312427,0.44021 -0.171173,0.19643 -0.400089,0.411 -0.669218,0.61116 -0.283562,0.21097 -0.597042,0.39646 -0.967225,0.55288 -0.352641,0.15643 -0.738297,0.22553 -1.149516,0.22553 -0.981658,0 -1.775122,-0.26924 -2.400823,-0.82214 -0.625908,-0.54197 -0.95278,-1.30591 -0.95278,-2.30263 0,-0.46928 0.142294,-0.89484 0.411424,-1.29138 0.273254,-0.40009 0.625908,-0.75305 1.040429,-1.04037 0.42587,-0.29831 0.880604,-0.5529 1.375033,-0.75304 0.498045,-0.21098 0.95278,-0.35286 1.378649,-0.44021 l 2.160766,-0.49475 v -0.72746 c 0,-0.72387 -0.200038,-1.33503 -0.581557,-1.81884 -0.381531,-0.49474 -0.982687,-0.7384 -1.77523,-0.7384 -0.228916,0 -0.498046,0.0433 -0.797081,0.12735 -0.297995,0.0877 -0.567124,0.18551 -0.840379,0.2983 -0.26913,0.11638 -0.509394,0.21458 -0.723864,0.3274 -0.211386,0.11638 -0.342346,0.18551 -0.395964,0.22911 l -0.46918,-1.19315 c 0.06182,-0.0433 0.200051,-0.11638 0.411437,-0.21457 0.228916,-0.098 0.498045,-0.21459 0.811513,-0.3274 0.297995,-0.12734 0.64034,-0.2255 1.021859,-0.31285 0.371224,-0.0835 0.752743,-0.12734 1.138605,-0.12734 1.120444,0 2.000733,0.29831 2.670049,0.93855 0.68365,0.62571 1.007439,1.5351 1.007439,2.7428 v 7.67183 z m -0.08251,-5.74023 -1.847927,0.39647 c -0.312439,0.0732 -0.636214,0.17097 -0.992993,0.3274 -0.356778,0.14188 -0.683651,0.32739 -0.967213,0.52742 -0.283574,0.21097 -0.523825,0.44019 -0.709432,0.70933 -0.200049,0.26924 -0.283562,0.5529 -0.283562,0.86575 0,0.61116 0.185607,1.09494 0.552692,1.45143 0.385644,0.35647 0.840379,0.52382 1.393179,0.52382 0.326873,0 0.654786,-0.0691 0.967226,-0.19643 0.323774,-0.14188 0.611463,-0.32739 0.866159,-0.54198 0.254696,-0.21097 0.483613,-0.44019 0.640341,-0.68025 0.18148,-0.24376 0.312439,-0.46927 0.38153,-0.6984 z"
       style="fill:#5d686e;fill-opacity:1;fill-rule:nonzero;stroke:none;stroke-width:3.63766" />
    <path
       id="path32"
       d="m 90.999455,164.39655 c -0.254684,0.0732 -0.494948,0.11275 -0.723864,0.11275 -0.440302,0 -0.807388,-0.0835 -1.080328,-0.22552 -0.283574,-0.14188 -0.509394,-0.34193 -0.680566,-0.58198 -0.156728,-0.24376 -0.283562,-0.52742 -0.342334,-0.85482 -0.07223,-0.32378 -0.112389,-0.66571 -0.112389,-1.02217 v -13.25563 h 1.535075 v 13.1283 c 0,0.45473 0.05154,0.82573 0.171173,1.10949 0.126822,0.28377 0.323776,0.42567 0.59703,0.42567 0.11239,0 0.240252,-0.0433 0.395964,-0.11287 0.171172,-0.0877 0.283562,-0.15643 0.342333,-0.22922 l 0.46918,1.28043 c -0.116503,0.0835 -0.298007,0.15643 -0.571262,0.22552 z"
       style="fill:#5d686e;fill-opacity:1;fill-rule:nonzero;stroke:none;stroke-width:3.63766" />
    <path
       id="path33"
       d="m 94.978967,158.95459 c 0,0.44021 0.06182,0.92403 0.171173,1.42234 0.112389,0.49474 0.283562,0.96402 0.527951,1.40413 0.225819,0.42927 0.523814,0.79667 0.895037,1.08038 0.367086,0.28378 0.807388,0.42927 1.335025,0.42927 0.297995,0 0.611463,-0.0289 0.90947,-0.10212 0.31244,-0.0547 0.581569,-0.14189 0.850698,-0.22552 0.257782,-0.0877 0.483609,-0.18551 0.669219,-0.28376 0.1856,-0.10213 0.34233,-0.17097 0.46917,-0.25831 l 0.45473,1.29501 c -0.0825,0.0402 -0.22891,0.11275 -0.45473,0.19644 -0.21449,0.0877 -0.46917,0.17096 -0.76718,0.2583 -0.297993,0.098 -0.640338,0.17097 -1.007424,0.22551 -0.385656,0.0732 -0.782648,0.11275 -1.196758,0.11275 -0.866159,0 -1.589721,-0.18189 -2.142619,-0.56744 -0.556817,-0.3674 -1.011552,-0.85122 -1.338641,-1.46232 -0.327901,-0.59662 -0.567124,-1.25138 -0.694987,-1.96072 -0.126834,-0.72387 -0.200051,-1.42232 -0.200051,-2.1171 0,-0.54198 0.08251,-1.1386 0.269141,-1.77883 0.171161,-0.65117 0.443388,-1.24771 0.782637,-1.80427 0.342345,-0.5529 0.767174,-1.00764 1.280378,-1.38959 0.512478,-0.35646 1.109508,-0.54197 1.789759,-0.54197 0.73831,0 1.378651,0.17096 1.902476,0.52743 0.512478,0.35286 0.923899,0.8076 1.251389,1.34958 0.31244,0.53837 0.54239,1.13495 0.68365,1.78973 0.14231,0.64024 0.19593,1.2659 0.19593,1.84793 v 0.55291 z m 5.016433,-2.24443 c -0.103074,-0.44019 -0.240253,-0.85121 -0.440302,-1.2368 -0.200039,-0.38193 -0.454736,-0.70932 -0.79707,-0.99309 -0.312439,-0.27285 -0.709431,-0.40009 -1.164069,-0.40009 -0.425857,0 -0.811513,0.12735 -1.138591,0.38555 -0.309343,0.25469 -0.58157,0.58207 -0.778523,0.96401 -0.214471,0.38556 -0.371211,0.78213 -0.4836,1.22227 -0.11239,0.44019 -0.171173,0.84028 -0.171173,1.20771 h 5.114498 c 0,-0.3274 -0.0413,-0.70934 -0.141268,-1.14951 z"
       style="fill:#5d686e;fill-opacity:1;fill-rule:nonzero;stroke:none;stroke-width:3.63766" />
    <path
       id="path34"
       d="m 119.03855,164.24013 v -7.01706 h -6.08223 v 7.01706 h -1.60787 v -14.73617 h 1.60787 v 6.38047 h 6.08223 v -6.38047 h 1.60415 v 14.73617 z"
       style="fill:#5d686e;fill-opacity:1;fill-rule:nonzero;stroke:none;stroke-width:3.63766" />
    <path
       id="path35"
       d="m 132.89068,158.40167 c 0,0.61116 -0.0722,1.27683 -0.22583,1.9898 -0.15673,0.70934 -0.41451,1.37868 -0.74242,1.98982 -0.33822,0.60744 -0.79295,1.12039 -1.34956,1.5169 -0.55271,0.41473 -1.2478,0.61116 -2.059,0.61116 -0.84039,0 -1.53508,-0.19643 -2.10252,-0.61116 -0.56713,-0.39648 -1.02186,-0.90937 -1.34955,-1.50599 -0.32791,-0.61116 -0.56715,-1.26228 -0.71357,-1.98617 -0.14229,-0.71295 -0.21138,-1.37867 -0.21138,-2.00436 0,-0.48381 0.0825,-1.06583 0.25469,-1.69151 0.15674,-0.64024 0.41143,-1.2368 0.76718,-1.80427 0.35678,-0.56744 0.81152,-1.03673 1.36411,-1.43688 0.55269,-0.39648 1.20777,-0.58199 1.9898,-0.58199 0.82596,0 1.52053,0.18551 2.08808,0.58199 0.55681,0.37101 0.99712,0.85482 1.33502,1.40776 0.34235,0.55291 0.5857,1.16406 0.74242,1.8043 0.14231,0.6257 0.21139,1.20769 0.21139,1.7206 z m -1.58962,0 c 0,-0.371 -0.0412,-0.79666 -0.13096,-1.28044 -0.10307,-0.48382 -0.24024,-0.9531 -0.46608,-1.39324 -0.22892,-0.44019 -0.51248,-0.82213 -0.85482,-1.12039 -0.35677,-0.31285 -0.79707,-0.46928 -1.33503,-0.46928 -0.51247,0 -0.95278,0.15643 -1.30584,0.44021 -0.35677,0.29831 -0.64035,0.66931 -0.85483,1.09493 -0.22581,0.4402 -0.38152,0.89483 -0.46916,1.39323 -0.10308,0.49474 -0.15674,0.93484 -0.15674,1.33502 0,0.4402 0.0412,0.93856 0.12683,1.506 0.0825,0.56743 0.22891,1.08038 0.42895,1.5751 0.21139,0.49836 0.49497,0.90938 0.85071,1.25135 0.3712,0.34193 0.82596,0.5129 1.37864,0.5129 0.53826,0 0.993,-0.17097 1.36411,-0.5129 0.35679,-0.34193 0.65478,-0.75305 0.85173,-1.25135 0.21448,-0.49474 0.37121,-1.00763 0.45474,-1.5751 0.0722,-0.55661 0.1165,-1.06584 0.1165,-1.506 z"
       style="fill:#5d686e;fill-opacity:1;fill-rule:nonzero;stroke:none;stroke-width:3.63766" />
    <path
       id="path36"
       d="m 142.51232,163.91273 c -0.18561,0.0877 -0.41452,0.17097 -0.68365,0.27284 -0.26913,0.0835 -0.58157,0.15642 -0.90947,0.22552 -0.34235,0.0577 -0.695,0.098 -1.06591,0.098 -0.79706,0 -1.47691,-0.18189 -2.0298,-0.52382 -0.54239,-0.35647 -0.99712,-0.82574 -1.33865,-1.40777 -0.32377,-0.56744 -0.58259,-1.22227 -0.73829,-1.94615 -0.14231,-0.73841 -0.22583,-1.46235 -0.22583,-2.22989 0,-0.61116 0.10307,-1.25137 0.31244,-1.90614 0.21139,-0.65118 0.49496,-1.24772 0.86617,-1.77518 0.38152,-0.52382 0.83626,-0.96762 1.37874,-1.30593 0.53826,-0.35646 1.13488,-0.52742 1.81874,-0.52742 0.32791,0 0.64034,0.0289 0.95278,0.0877 0.31244,0.0547 0.5826,0.14189 0.82183,0.21098 0.24335,0.0877 0.45474,0.15642 0.62591,0.24376 0.17116,0.0835 0.28356,0.14188 0.31243,0.18189 l -0.45474,1.29502 c -0.0412,-0.0577 -0.15673,-0.11275 -0.31244,-0.20006 -0.17116,-0.0691 -0.35676,-0.15642 -0.56713,-0.25458 -0.22891,-0.0877 -0.45473,-0.15642 -0.71355,-0.21458 -0.22582,-0.0547 -0.45473,-0.0835 -0.66612,-0.0835 -0.4403,0 -0.8404,0.12734 -1.1786,0.39648 -0.34235,0.2546 -0.64035,0.61115 -0.88369,1.02218 -0.22583,0.41473 -0.41143,0.88389 -0.52382,1.37866 -0.12684,0.5129 -0.20005,0.99671 -0.20005,1.46599 0,0.56744 0.0618,1.14951 0.15673,1.73152 0.1124,0.58209 0.26913,1.10948 0.49806,1.54964 0.24024,0.46928 0.52381,0.83668 0.89502,1.12405 0.35678,0.28377 0.78265,0.42555 1.28048,0.42555 0.24027,0 0.48052,-0.0289 0.7383,-0.0877 0.2547,-0.0547 0.48361,-0.12735 0.72387,-0.21097 0.22583,-0.10212 0.42586,-0.18551 0.61147,-0.28377 0.1856,-0.10212 0.32791,-0.18551 0.41144,-0.2583 l 0.46916,1.30954 c -0.0722,0.0403 -0.20004,0.11288 -0.38153,0.19645 z"
       style="fill:#5d686e;fill-opacity:1;fill-rule:nonzero;stroke:none;stroke-width:3.63766" />
    <path
       id="path37"
       d="m 152.0757,164.24013 v -7.4463 c 0,-0.29831 -0.0618,-0.59661 -0.14539,-0.92401 -0.10307,-0.31285 -0.22582,-0.59652 -0.41143,-0.8512 -0.17117,-0.2546 -0.39596,-0.46928 -0.66612,-0.62571 -0.27325,-0.17096 -0.59601,-0.2546 -0.93835,-0.2546 -0.35677,0 -0.69809,0.0835 -1.01156,0.2546 -0.31243,0.17096 -0.59703,0.371 -0.85068,0.59662 -0.22583,0.24376 -0.42588,0.46928 -0.56714,0.69839 -0.15674,0.24005 -0.24335,0.42556 -0.2547,0.5529 v 7.99921 h -1.52053 v -15.65649 h 1.52053 v 6.12219 c 0.0207,-0.098 0.12684,-0.24005 0.28357,-0.44019 0.15674,-0.20005 0.35265,-0.39648 0.61147,-0.61117 0.26913,-0.20004 0.55269,-0.38193 0.89503,-0.53835 0.32791,-0.15643 0.68056,-0.22923 1.06591,-0.22923 0.58156,0 1.10579,0.11274 1.546,0.31285 0.44339,0.21459 0.81151,0.49836 1.09487,0.85122 0.28356,0.35646 0.49803,0.75295 0.65478,1.20769 0.14229,0.45474 0.21448,0.90938 0.21448,1.36412 v 7.61727 z"
       style="fill:#5d686e;fill-opacity:1;fill-rule:nonzero;stroke:none;stroke-width:3.63766" />
    <path
       id="path38"
       d="m 163.65446,161.21359 c 0,0.46927 -0.10308,0.90936 -0.28356,1.30955 -0.20004,0.41102 -0.45474,0.76758 -0.79708,1.0513 -0.32688,0.29831 -0.70944,0.52382 -1.16406,0.69478 -0.45473,0.15643 -0.92392,0.24006 -1.42227,0.24006 -0.4403,0 -0.85069,-0.0258 -1.22232,-0.0835 -0.38153,-0.0732 -0.72386,-0.14188 -1.00743,-0.22552 -0.298,-0.0877 -0.5527,-0.17096 -0.76718,-0.27284 -0.21447,-0.0835 -0.36709,-0.15643 -0.49805,-0.21096 l 0.46918,-1.2368 c 0.0722,0.0433 0.21447,0.11274 0.44031,0.20004 0.21447,0.098 0.46916,0.18189 0.76717,0.28376 0.28356,0.0835 0.58155,0.17097 0.90947,0.24006 0.32687,0.0732 0.62591,0.11275 0.88369,0.11275 0.56714,0 1.05126,-0.17096 1.46227,-0.49474 0.42587,-0.31285 0.64034,-0.76759 0.64034,-1.33866 0,-0.32377 -0.13094,-0.62199 -0.38565,-0.88029 -0.25469,-0.25459 -0.58156,-0.50928 -0.97856,-0.75304 -0.38564,-0.22552 -0.8115,-0.48382 -1.26593,-0.72388 -0.46917,-0.24005 -0.8806,-0.49835 -1.28038,-0.78211 -0.38153,-0.28378 -0.70943,-0.58199 -0.96413,-0.92402 -0.25777,-0.34193 -0.38564,-0.7384 -0.38564,-1.2077 0,-0.48382 0.0825,-0.93855 0.28356,-1.33503 0.18561,-0.41101 0.45474,-0.76758 0.78264,-1.06583 0.34235,-0.29831 0.71253,-0.52382 1.13861,-0.68025 0.42585,-0.17097 0.88059,-0.24376 1.37863,-0.24376 0.28356,0 0.59704,0.0289 0.89504,0.0877 0.29801,0.0547 0.56713,0.12734 0.82182,0.19643 0.25779,0.0732 0.46918,0.14188 0.64035,0.22912 0.17116,0.0835 0.298,0.15643 0.38564,0.21097 l -0.46916,1.20771 c -0.0618,-0.0547 -0.17117,-0.12735 -0.34235,-0.21097 -0.17117,-0.0876 -0.37121,-0.17097 -0.59702,-0.2583 -0.2145,-0.0835 -0.44031,-0.15282 -0.68366,-0.21098 -0.25469,-0.0577 -0.46918,-0.0876 -0.68057,-0.0876 -0.55269,0 -1.03671,0.17097 -1.4369,0.5129 -0.39699,0.35647 -0.59703,0.8112 -0.59703,1.37868 0,0.32738 0.1423,0.64023 0.40008,0.90936 0.26913,0.28378 0.59704,0.55291 0.97856,0.79667 0.40009,0.25459 0.82596,0.49474 1.28049,0.73841 0.46916,0.24005 0.89504,0.50928 1.2913,0.79667 0.38565,0.26922 0.71356,0.58197 0.98269,0.90935 0.25469,0.33834 0.39699,0.70934 0.39699,1.12041 z"
       style="fill:#5d686e;fill-opacity:1;fill-rule:nonzero;stroke:none;stroke-width:3.63766" />
    <path
       id="path39"
       d="m 173.14504,163.91273 c -0.18148,0.0877 -0.41141,0.17097 -0.68055,0.27284 -0.28357,0.0835 -0.58157,0.15642 -0.92391,0.22552 -0.34235,0.0577 -0.695,0.098 -1.0659,0.098 -0.79605,0 -1.46226,-0.18189 -2.01887,-0.52382 -0.55271,-0.35647 -0.99301,-0.82574 -1.33505,-1.40777 -0.34233,-0.56744 -0.58156,-1.22227 -0.7383,-1.94615 -0.15673,-0.73841 -0.24026,-1.46235 -0.24026,-2.22989 0,-0.61116 0.11239,-1.25137 0.31244,-1.90614 0.21139,-0.65118 0.49497,-1.24772 0.88061,-1.77518 0.36708,-0.52382 0.82182,-0.96762 1.36411,-1.30593 0.53825,-0.35646 1.14951,-0.52742 1.81883,-0.52742 0.32688,0 0.64035,0.0289 0.95279,0.0877 0.31244,0.0547 0.58157,0.14189 0.83625,0.21098 0.24027,0.0877 0.4403,0.15642 0.61147,0.24376 0.17118,0.0835 0.28357,0.14188 0.32791,0.18189 l -0.46917,1.29502 c -0.0412,-0.0577 -0.1423,-0.11275 -0.31244,-0.20006 -0.15673,-0.0691 -0.34233,-0.15642 -0.56712,-0.25458 -0.22891,-0.0877 -0.45475,-0.15642 -0.6981,-0.21458 -0.24025,-0.0547 -0.46917,-0.0835 -0.68056,-0.0835 -0.44029,0 -0.84038,0.12734 -1.1786,0.39648 -0.34233,0.2546 -0.6259,0.61115 -0.86925,1.02218 -0.24027,0.41473 -0.42587,0.88389 -0.53826,1.37866 -0.12683,0.5129 -0.18562,0.99671 -0.18562,1.46599 0,0.56744 0.0412,1.14951 0.15674,1.73152 0.10307,0.58209 0.26914,1.10948 0.49805,1.54964 0.22582,0.46928 0.50938,0.83668 0.88061,1.12405 0.35676,0.28377 0.78263,0.42555 1.2914,0.42555 0.24336,0 0.46917,-0.0289 0.72799,-0.0877 0.25469,-0.0547 0.49495,-0.12735 0.72387,-0.21097 0.22582,-0.10212 0.44029,-0.18551 0.61146,-0.28377 0.18561,-0.10212 0.32688,-0.18551 0.41144,-0.2583 l 0.46917,1.30954 c -0.0722,0.0403 -0.18561,0.11288 -0.37121,0.19645 z"
       style="fill:#5d686e;fill-opacity:1;fill-rule:nonzero;stroke:none;stroke-width:3.63766" />
    <path
       id="path40"
       d="m 182.69761,164.24013 v -7.4463 c 0,-0.29831 -0.0412,-0.59661 -0.1454,-0.92401 -0.10307,-0.31285 -0.22582,-0.59652 -0.39699,-0.8512 -0.1856,-0.2546 -0.41143,-0.46928 -0.68056,-0.62571 -0.27326,-0.17096 -0.5857,-0.2546 -0.93835,-0.2546 -0.35677,0 -0.68364,0.0835 -1.01156,0.2546 -0.31243,0.17096 -0.59703,0.371 -0.83625,0.59662 -0.24027,0.24376 -0.44031,0.46928 -0.5826,0.69839 -0.15674,0.24005 -0.22891,0.42556 -0.24335,0.5529 v 7.99921 h -1.53147 v -15.65649 h 1.53147 v 6.12219 c 0.031,-0.098 0.1165,-0.24005 0.27324,-0.44019 0.15675,-0.20005 0.36711,-0.39648 0.62179,-0.61117 0.25779,-0.20004 0.55683,-0.38193 0.8837,-0.53835 0.32687,-0.15643 0.68055,-0.22923 1.08044,-0.22923 0.58156,0 1.09127,0.11274 1.53146,0.31285 0.4434,0.21459 0.81151,0.49836 1.09498,0.85122 0.29799,0.35646 0.51247,0.75295 0.65477,1.20769 0.15674,0.45474 0.22583,0.90938 0.22583,1.36412 v 7.61727 z"
       style="fill:#5d686e;fill-opacity:1;fill-rule:nonzero;stroke:none;stroke-width:3.63766" />
    <path
       id="path41"
       d="m 194.23264,164.24013 v -1.56057 c -0.0412,0.0691 -0.1423,0.21097 -0.298,0.41102 -0.15674,0.21097 -0.35265,0.41101 -0.59703,0.6257 -0.25469,0.21096 -0.53827,0.38193 -0.8806,0.5529 -0.32792,0.15643 -0.69501,0.24005 -1.09499,0.24005 -0.59703,0 -1.12033,-0.11276 -1.546,-0.32378 -0.44339,-0.21458 -0.79605,-0.49836 -1.08032,-0.84028 -0.28357,-0.34194 -0.48361,-0.73841 -0.62591,-1.20771 -0.12683,-0.45473 -0.1856,-0.92401 -0.1856,-1.40776 v -7.58817 h 1.52052 v 7.44629 c 0,0.34193 0.0412,0.66931 0.12683,0.9967 0.0722,0.31286 0.20004,0.59663 0.35678,0.83667 0.17117,0.24378 0.38152,0.44021 0.64035,0.59664 0.26912,0.15642 0.59703,0.22911 0.97855,0.22911 0.35678,0 0.68365,-0.0877 0.99712,-0.26923 0.29801,-0.20004 0.58157,-0.40009 0.80739,-0.6257 0.24335,-0.24376 0.42587,-0.48382 0.56713,-0.71295 0.1423,-0.24003 0.21447,-0.39646 0.22892,-0.49474 v -8.00285 h 1.53506 v 11.0985 z"
       style="fill:#5d686e;fill-opacity:1;fill-rule:nonzero;stroke:none;stroke-width:3.63766" />
    <path
       id="path42"
       d="m 202.39192,164.39655 c -0.2578,0.0732 -0.51249,0.11275 -0.72799,0.11275 -0.44031,0 -0.80741,-0.0835 -1.09127,-0.22552 -0.27325,-0.14188 -0.49805,-0.34193 -0.66922,-0.58198 -0.17117,-0.24376 -0.28356,-0.52742 -0.35678,-0.85482 -0.0515,-0.32378 -0.10307,-0.66571 -0.10307,-1.02217 v -13.25563 h 1.53506 v 13.1283 c 0,0.45473 0.0515,0.82573 0.17117,1.10949 0.11239,0.28377 0.31244,0.42567 0.59703,0.42567 0.10308,0 0.24027,-0.0433 0.397,-0.11287 0.15673,-0.0877 0.26913,-0.15643 0.32687,-0.22922 l 0.46918,1.28043 c -0.10308,0.0835 -0.28356,0.15643 -0.5527,0.22552 z"
       style="fill:#5d686e;fill-opacity:1;fill-rule:nonzero;stroke:none;stroke-width:3.63766" />
    <path
       id="path43"
       d="m 206.24056,158.95459 c 0,0.44021 0.0618,0.92403 0.15675,1.42234 0.11238,0.49474 0.28356,0.96402 0.52794,1.40413 0.24026,0.42927 0.53827,0.79667 0.90947,1.08038 0.36709,0.28378 0.80739,0.42927 1.32049,0.42927 0.31244,0 0.61147,-0.0289 0.92391,-0.10212 0.29799,-0.0547 0.58158,-0.14189 0.83626,-0.22552 0.25779,-0.0877 0.48361,-0.18551 0.66921,-0.28376 0.20004,-0.10213 0.35678,-0.17097 0.46918,-0.25831 l 0.45474,1.29501 c -0.0825,0.0402 -0.22892,0.11275 -0.4403,0.19644 -0.21449,0.0877 -0.48362,0.17096 -0.78265,0.2583 -0.298,0.098 -0.64034,0.17097 -1.00742,0.22551 -0.38567,0.0732 -0.76718,0.11275 -1.19686,0.11275 -0.86617,0 -1.57508,-0.18189 -2.13159,-0.56744 -0.56713,-0.3674 -1.00744,-0.85122 -1.34957,-1.46232 -0.32378,-0.59662 -0.5527,-1.25138 -0.695,-1.96072 -0.12785,-0.72387 -0.1856,-1.42232 -0.1856,-2.1171 0,-0.54198 0.0825,-1.1386 0.25469,-1.77883 0.18562,-0.65117 0.44339,-1.24771 0.78265,-1.80427 0.35677,-0.5529 0.7816,-1.00764 1.29502,-1.38959 0.50938,-0.35646 1.09486,-0.54197 1.77511,-0.54197 0.73832,0 1.37865,0.17096 1.89154,0.52743 0.52383,0.35286 0.93526,0.8076 1.2478,1.34958 0.32791,0.53837 0.55682,1.13495 0.69808,1.78973 0.12684,0.64024 0.19592,1.2659 0.19592,1.84793 v 0.55291 z m 5.00169,-2.24443 c -0.10307,-0.44019 -0.24026,-0.85121 -0.44029,-1.2368 -0.20005,-0.38193 -0.46918,-0.70932 -0.78265,-0.99309 -0.32687,-0.27285 -0.72387,-0.40009 -1.1786,-0.40009 -0.42587,0 -0.79708,0.12735 -1.12406,0.38555 -0.32378,0.25469 -0.59703,0.58207 -0.79294,0.96401 -0.21449,0.38556 -0.37122,0.78213 -0.46918,1.22227 -0.11239,0.44019 -0.17118,0.84028 -0.17118,1.20771 h 5.09996 c 0,-0.3274 -0.0412,-0.70934 -0.1423,-1.14951 z"
       style="fill:#5d686e;fill-opacity:1;fill-rule:nonzero;stroke:none;stroke-width:3.63766" />
  </g>
</svg>
