<?xml version="1.0" encoding="UTF-8" standalone="no"?>
<!-- Created with Inkscape (http://www.inkscape.org/) -->

<svg
   width="385.80621mm"
   height="147.69817mm"
   viewBox="0 0 385.80621 147.69817"
   version="1.1"
   id="svg1"
   xmlns="http://www.w3.org/2000/svg"
   xmlns:svg="http://www.w3.org/2000/svg">
  <defs
     id="defs1" />
  <g
     id="layer1"
     transform="translate(97.710732,-46.273289)">
    <path
       id="path3"
       d="m 112.64782,193.97146 h 8.95173 c 26.85415,-1.34232 45.65192,-22.37811 45.65192,-47.44191 0,-8.50371 -1.79001,-17.00742 -5.81803,-23.72148 h -48.78562 z"
       style="fill:#ff000f;fill-opacity:1;fill-rule:nonzero;stroke:none;stroke-width:0.352777" />
    <path
       id="path4"
       d="m 63.414867,122.36039 h 44.757263 v 71.61107 H 63.414867 Z"
       style="fill:#ff000f;fill-opacity:1;fill-rule:nonzero;stroke:none;stroke-width:0.352777" />
    <path
       id="path5"
       d="m 158.74739,117.88435 c -4.47569,-6.26569 -10.74171,-11.1894 -17.45543,-14.76975 8.05603,-5.818007 13.42741,-15.217767 13.42741,-25.511467 0,-17.455801 -13.87543,-31.329844 -31.32946,-31.329844 h -10.74209 v 71.611061 z"
       style="fill:#ff000f;fill-opacity:1;fill-rule:nonzero;stroke:none;stroke-width:0.352777" />
    <path
       id="path6"
       d="M 63.414867,46.273289 H 108.17213 V 117.88435 H 63.414867 Z"
       style="fill:#ff000f;fill-opacity:1;fill-rule:nonzero;stroke:none;stroke-width:0.352777" />
    <path
       id="path7"
       d="m 233.49218,193.97146 h 8.95175 c 26.85378,-1.34232 45.65156,-22.37811 45.65156,-47.44191 0,-8.50371 -1.78999,-17.00742 -5.81801,-23.72148 h -48.7853 z"
       style="fill:#ff000f;fill-opacity:1;fill-rule:nonzero;stroke:none;stroke-width:0.352777" />
    <path
       id="path8"
       d="m 184.25923,122.36039 h 44.75726 v 71.61107 h -44.75726 z"
       style="fill:#ff000f;fill-opacity:1;fill-rule:nonzero;stroke:none;stroke-width:0.352777" />
    <path
       id="path9"
       d="m 279.59178,117.88435 c -4.47569,-6.26569 -10.74174,-11.1894 -17.45544,-14.76975 8.05709,-5.818007 13.42742,-15.217767 13.42742,-25.511467 0,-17.455801 -13.87403,-31.329844 -31.32984,-31.329844 h -10.74174 v 71.611061 z"
       style="fill:#ff000f;fill-opacity:1;fill-rule:nonzero;stroke:none;stroke-width:0.352777" />
    <path
       id="path10"
       d="m 184.25923,46.273289 h 44.75726 v 71.611061 h -44.75726 z"
       style="fill:#ff000f;fill-opacity:1;fill-rule:nonzero;stroke:none;stroke-width:0.352777" />
    <path
       id="path11"
       d="m -72.199256,122.36039 -25.511476,71.61107 h 37.147497 l 10.742083,-31.32984 h 23.721483 v -40.28123 z"
       style="fill:#ff000f;fill-opacity:1;fill-rule:nonzero;stroke:none;stroke-width:0.352777" />
    <path
       id="path12"
       d="m -26.099669,46.273289 h -19.245792 l -25.511476,71.611061 h 44.757268 z"
       style="fill:#ff000f;fill-opacity:1;fill-rule:nonzero;stroke:none;stroke-width:0.352777" />
    <path
       id="path13"
       d="M -21.623978,162.64162 H 2.0975054 L 12.839589,193.97146 H 49.987086 L 24.475609,122.36039 h -46.099587 z"
       style="fill:#ff000f;fill-opacity:1;fill-rule:nonzero;stroke:none;stroke-width:0.352777" />
    <path
       id="path14"
       d="M 23.13329,117.88435 -2.3781857,46.273289 H -21.623978 v 71.611061 z"
       style="fill:#ff000f;fill-opacity:1;fill-rule:nonzero;stroke:none;stroke-width:0.352777" />
  </g>
</svg>
